<svg xmlns="http://www.w3.org/2000/svg" width="25" height="18.75" viewBox="0 0 25 18.75"><path d="M24.526-12.559c-1.094.85-2.539,1.934-7.52,5.552-.991.723-2.764,2.339-4.507,2.324-1.733.01-3.472-1.572-4.5-2.324-4.98-3.618-6.431-4.7-7.524-5.547A.292.292,0,0,0,0-12.324v9.98A2.344,2.344,0,0,0,2.344,0H22.656A2.344,2.344,0,0,0,25-2.344v-9.985A.294.294,0,0,0,24.526-12.559ZM12.5-6.25c1.133.02,2.764-1.426,3.584-2.021,6.479-4.7,6.973-5.112,8.467-6.284A1.168,1.168,0,0,0,25-15.478v-.928a2.344,2.344,0,0,0-2.344-2.344H2.344A2.344,2.344,0,0,0,0-16.406v.928a1.176,1.176,0,0,0,.449.923c1.494,1.167,1.987,1.582,8.467,6.284C9.736-7.676,11.367-6.23,12.5-6.25Z" transform="translate(0 18.75)"/></svg>