<svg xmlns="http://www.w3.org/2000/svg" width="24.219" height="23.616" viewBox="0 0 24.219 23.616"><path d="M8.105-2.49q0,.2-.269.22t-.269-.171q0-.2.244-.2a.4.4,0,0,1,.22.049Q8.105-2.539,8.105-2.49Zm-1.514-.2q.049-.2.293-.122t.22.2a.228.228,0,0,1-.122.171.208.208,0,0,1-.2,0,.652.652,0,0,1-.171-.122Q6.543-2.637,6.592-2.686Zm2.148-.1q.244,0,.269.146t-.22.244a.541.541,0,0,1-.171-.024q-.073-.024-.1-.171T8.74-2.783Zm3.223-18.7a12.529,12.529,0,0,1,6.152,1.562,11.621,11.621,0,0,1,4.443,4.248,11.7,11.7,0,0,1,1.66,6.1,12.22,12.22,0,0,1-2.271,7.251A11.621,11.621,0,0,1,16.016,2.1a.638.638,0,0,1-.61-.1.626.626,0,0,1-.22-.488v-4.1a2.752,2.752,0,0,0-.83-2.246,13.869,13.869,0,0,0,2.686-.488,4.378,4.378,0,0,0,2.1-1.465,6.278,6.278,0,0,0,.83-3.467,3.563,3.563,0,0,0-.342-1.611,5.71,5.71,0,0,0-.928-1.221,3.915,3.915,0,0,0,.244-1.172,5.505,5.505,0,0,0-.342-2.148,2.223,2.223,0,0,0-1.367.2,13.288,13.288,0,0,0-1.367.684l-.635.439a11.065,11.065,0,0,0-3.1-.439,10.563,10.563,0,0,0-3.052.439l-.635-.439a10.979,10.979,0,0,0-1.416-.684,2.1,2.1,0,0,0-1.318-.2,4.526,4.526,0,0,0-.342,2.148,2.78,2.78,0,0,0,.2,1.123,6.243,6.243,0,0,0-.854,1.343,3.832,3.832,0,0,0-.269,1.538,6.325,6.325,0,0,0,.781,3.418A3.973,3.973,0,0,0,7.275-5.322a13.725,13.725,0,0,0,2.637.488,2.662,2.662,0,0,0-.781,1.66,2.9,2.9,0,0,1-1.611.293A2.361,2.361,0,0,1,5.566-4.2a2.542,2.542,0,0,0-.781-.879,5.04,5.04,0,0,0-.732-.342l-.342-.049q-.537,0-.562.171t.22.366l.244.2A2.436,2.436,0,0,1,4.3-4.1a3.17,3.17,0,0,1,.488.781l.2.391a1.976,1.976,0,0,0,.928,1.123,3.625,3.625,0,0,0,1.416.439,5.183,5.183,0,0,0,1.221-.049l.537-.049.049,2.979A.626.626,0,0,1,8.911,2a.638.638,0,0,1-.61.1A11.734,11.734,0,0,1,2.295-2.319,12.13,12.13,0,0,1,0-9.57a11.987,11.987,0,0,1,1.562-6.055,11.348,11.348,0,0,1,4.3-4.3A12.082,12.082,0,0,1,11.963-21.484ZM4.736-4.639q.1-.1.244.049t.049.244q-.1.1-.244-.049T4.736-4.639ZM4.2-5.029a.193.193,0,0,1,.244-.024q.146.073.1.2t-.22.024Q4.15-4.932,4.2-5.029ZM5.811-3.32a.146.146,0,0,1,.146-.024.362.362,0,0,1,.171.1.362.362,0,0,1,.1.171A.146.146,0,0,1,6.2-2.93q-.146.146-.342-.049a.281.281,0,0,1-.1-.2A.2.2,0,0,1,5.811-3.32ZM5.225-4A.222.222,0,0,1,5.4-4.028a.222.222,0,0,1,.122.122q.146.2,0,.293-.049.049-.122,0a1.6,1.6,0,0,0-.171-.1Q5.127-3.955,5.225-4Z" transform="translate(0 21.484)" fill="#212121"/></svg>