<svg xmlns="http://www.w3.org/2000/svg" width="21.875" height="21.875" viewBox="0 0 21.875 21.875"><path d="M4.883,0V-14.6H.342V0ZM2.637-16.6a2.535,2.535,0,0,0,1.855-.781,2.535,2.535,0,0,0,.781-1.855,2.535,2.535,0,0,0-.781-1.855,2.535,2.535,0,0,0-1.855-.781,2.535,2.535,0,0,0-1.855.781A2.535,2.535,0,0,0,0-19.238a2.535,2.535,0,0,0,.781,1.855A2.535,2.535,0,0,0,2.637-16.6ZM21.875,0V-8.008a9.875,9.875,0,0,0-.977-4.98q-1.27-2-4.443-2a4.814,4.814,0,0,0-2.734.781A3.9,3.9,0,0,0,12.158-12.6h-.049v-2H7.764V0h4.492V-7.227a5.451,5.451,0,0,1,.488-2.588,2.287,2.287,0,0,1,2.2-1.172,2.055,2.055,0,0,1,2.1,1.318,7.887,7.887,0,0,1,.293,2.539V0Z" transform="translate(0 21.875)"/></svg>